<svg width="126" height="126" viewBox="0 0 126 126" fill="none" xmlns="http://www.w3.org/2000/svg">
<g clip-path="url(#clip0_430_1591)">
<path d="M103.793 0H22.2075C9.94264 0 0 9.94264 0 22.2075V103.793C0 116.057 9.94264 126 22.2075 126H103.793C116.057 126 126 116.057 126 103.793V22.2075C126 9.94264 116.057 0 103.793 0Z" fill="#4382FC"/>
<path d="M109.192 89.64C109.552 91.2825 108.27 92.8575 106.582 92.8575H81.135C79.65 92.8575 78.4575 91.6425 78.4575 90.18V76.275C78.4575 74.79 79.6725 73.5975 81.135 73.5975H103.77C105.03 73.5975 106.132 74.475 106.38 75.7575L109.17 89.6625L109.192 89.64Z" fill="white"/>
<path d="M103.59 65.3175C103.905 66.96 102.645 68.49 100.98 68.49H81.36C79.92 68.49 78.705 67.2975 78.6825 65.8575L78.5025 56.8575C78.48 55.35 79.6725 54.135 81.18 54.135H99.27C100.553 54.135 101.655 55.035 101.88 56.295L103.59 65.3175Z" fill="white"/>
<path d="M72.765 76.1625V90.0675C72.765 91.5525 71.55 92.745 70.0875 92.745H44.6175C42.93 92.745 41.67 91.1925 42.0075 89.5275L44.8425 75.6225C45.0675 74.3625 46.1925 73.4625 47.4525 73.4625H70.0875C71.5725 73.4625 72.765 74.6775 72.765 76.14V76.1625Z" fill="white"/>
<path d="M70.02 54.0675C71.5275 54.0675 72.7425 55.305 72.6975 56.8125L72.495 65.79C72.4725 67.2525 71.28 68.4 69.8175 68.4H50.1975C48.51 68.4 47.2725 66.8925 47.5875 65.2275L49.2975 56.2275C49.5675 54.9675 50.6475 54.0675 51.9525 54.0675H70.0425H70.02Z" fill="white"/>
<path d="M68.6475 41.2425C69.885 41.04 70.605 42.5475 69.705 43.4025L63.6975 48.9375H59.04C58.5225 46.6875 57.51 44.5275 55.89 42.6375C50.6475 36.4275 41.3775 35.64 35.145 40.8825C28.9125 46.1475 28.1475 55.395 33.39 61.6275C35.4825 64.08 38.16 65.7225 41.1075 66.3975L39.735 72.045L29.9475 79.11L31.5675 68.3325L24.885 70.0875C23.625 70.4475 22.635 69.03 23.3325 67.9275L27.405 61.7625L17.3475 62.8875C15.84 63.045 15.12 61.11 16.38 60.255L24.9525 54.45L9.87751 50.715C8.23501 50.31 8.43751 47.925 10.125 47.79L26.1 46.71L18.4725 39.9375C17.325 38.925 18.2925 37.035 19.7775 37.3725L28.8675 39.3975L21.15 25.965C20.3175 24.525 22.0725 22.995 23.3775 24.03L35.685 33.66L35.415 24.255C35.37 22.7925 37.2825 22.1625 38.0925 23.3775L42.57 29.7225L47.4975 14.9625C47.9925 13.4325 50.2425 13.6125 50.355 15.1875L51.6375 31.95L57.6225 25.4925C58.6575 24.3675 60.435 25.245 60.12 26.7075L58.1625 35.55L63.675 33.255C64.8 32.7825 65.9475 33.8625 65.5425 35.01L63.045 42.12L68.625 41.2425H68.6475Z" fill="white"/>
<path d="M60.66 50.355H52.5375C49.275 50.355 46.44 52.605 45.6525 55.7775L42.705 67.815C39.7575 67.14 37.08 65.4975 34.9875 63.045C29.745 56.8125 30.51 47.565 36.7425 42.3C42.975 37.0575 52.245 37.845 57.4875 44.055C59.085 45.945 60.0975 48.105 60.6375 50.355H60.66Z" fill="white"/>
<path d="M78.615 97.83H76.365V110.34H78.615V97.83Z" fill="#4382FC"/>
<path d="M93.7575 110.7H55.8C55.17 110.7 54.675 110.205 54.675 109.575C54.675 108.945 55.17 108.45 55.8 108.45H93.7575C94.3875 108.45 94.8825 108.945 94.8825 109.575C94.8825 110.205 94.3875 110.7 93.7575 110.7Z" fill="#4382FC"/>
<path d="M110.52 98.9325H44.4375C41.895 98.9325 39.5325 97.785 37.9575 95.7825C36.405 93.8025 35.865 91.2375 36.4725 88.8075L44.595 55.53C45.495 51.8175 48.78 49.2525 52.56 49.2525H102.42C106.2 49.2525 109.485 51.84 110.385 55.53L118.508 88.8075C119.115 91.26 118.575 93.8025 117.023 95.7825C115.448 97.785 113.085 98.9325 110.543 98.9325H110.52ZM52.5375 51.48C49.7925 51.48 47.4075 53.37 46.755 56.0475L38.6325 89.325C38.1825 91.1025 38.5875 92.9475 39.7125 94.3875C40.86 95.85 42.57 96.6825 44.415 96.6825H110.498C112.365 96.6825 114.075 95.85 115.223 94.3875C116.348 92.9475 116.73 91.1025 116.303 89.325L108.18 56.025C107.528 53.3475 105.143 51.4575 102.398 51.4575H52.5375V51.48Z" fill="#4382FC"/>
<path d="M42.7275 70.065C42.57 70.065 42.39 70.065 42.21 69.9975C38.745 69.21 35.6625 67.2975 33.2775 64.485C27.2475 57.33 28.17 46.5975 35.3025 40.5675C42.4575 34.5375 53.19 35.46 59.22 42.5925C60.975 44.64 62.19 47.0925 62.8425 49.8375C62.8875 49.995 62.91 50.175 62.91 50.355C62.91 51.5925 61.8975 52.6275 60.66 52.6275C59.535 52.6275 58.6125 51.8175 58.4325 50.7375C57.9375 48.735 57.06 46.98 55.8 45.5175C51.345 40.2525 43.47 39.6 38.205 44.01C32.9625 48.4425 32.2875 56.34 36.72 61.5825C38.4525 63.63 40.7025 65.025 43.2225 65.61C44.4375 65.88 45.18 67.095 44.91 68.31C44.6625 69.345 43.74 70.065 42.7275 70.065Z" fill="#4382FC"/>
<path d="M29.565 79.6725C29.3625 79.6725 29.16 79.6275 28.98 79.515C28.5975 79.29 28.395 78.84 28.4625 78.39L29.835 69.3L24.795 70.6275C23.805 70.8975 22.725 70.5375 22.1175 69.705C21.465 68.85 21.4425 67.7025 22.005 66.78L24.75 62.6175L17.1 63.4725C15.9075 63.6075 14.8275 62.9325 14.4 61.8075C13.9725 60.6825 14.3775 59.4675 15.3675 58.7925L21.87 54.405L9.2475 51.2775C7.9875 50.9625 7.1775 49.8375 7.29 48.5325C7.4025 47.2275 8.3925 46.2375 9.6975 46.1475L22.995 45.2475L17.37 40.2525C16.47 39.4425 16.2225 38.1825 16.785 37.1025C17.3475 36.0225 18.495 35.4825 19.6875 35.7525L26.28 37.2375L19.845 26.01C19.215 24.9075 19.44 23.535 20.4075 22.7025C21.375 21.87 22.7475 21.825 23.76 22.635L34.1775 30.78L33.975 23.7825C33.93 22.635 34.65 21.6 35.7525 21.24C36.855 20.88 38.0475 21.2625 38.7 22.23L41.8725 26.7525L46.1025 14.1075C46.5075 12.8925 47.6775 12.15 48.9375 12.3075C50.175 12.465 51.0525 13.3875 51.1425 14.6025L52.2225 28.8L56.4525 24.2325C57.2625 23.3325 58.5225 23.1075 59.58 23.6475C60.5925 24.1875 61.11 25.3125 60.8625 26.46L59.3775 33.1875L62.8875 31.725C63.81 31.3425 64.8675 31.5225 65.5875 32.22C66.33 32.9175 66.5775 33.9525 66.24 34.8975L64.3725 40.23L68.085 39.645C69.12 39.465 70.1325 39.9825 70.5825 40.9275C71.055 41.8725 70.8525 42.9975 70.065 43.7175L64.0575 49.2525C63.6075 49.68 62.8875 49.6575 62.46 49.185C62.0325 48.735 62.0775 48.015 62.5275 47.5875L68.535 42.0525L68.4225 41.8275L62.8425 42.705C62.46 42.7725 62.055 42.615 61.8075 42.3225C61.56 42.0075 61.47 41.6025 61.605 41.22L64.1025 34.11C64.1475 33.975 64.1025 33.8625 64.035 33.8175C63.9675 33.75 63.8775 33.705 63.7425 33.7725L58.23 36.0675C57.8475 36.225 57.3975 36.1575 57.0825 35.8875C56.7675 35.6175 56.61 35.19 56.7 34.785L58.6575 25.9425C58.6575 25.9425 58.68 25.7175 58.545 25.6275C58.455 25.5825 58.2975 25.5375 58.1175 25.74L52.1325 32.1975C51.8175 32.535 51.3675 32.6475 50.94 32.49C50.5125 32.3325 50.22 31.95 50.1975 31.5225L48.915 14.76C48.915 14.76 48.915 14.535 48.6675 14.5125C48.5775 14.5125 48.33 14.5125 48.24 14.805L43.3125 29.5875C43.1775 29.9925 42.84 30.285 42.4125 30.3525C41.985 30.42 41.58 30.24 41.3325 29.88L36.855 23.535C36.72 23.355 36.5625 23.355 36.45 23.4C36.3375 23.445 36.2025 23.535 36.2025 23.7375L36.4725 33.1425C36.4725 33.57 36.2475 33.975 35.865 34.1775C35.4825 34.38 35.01 34.335 34.6725 34.065L22.365 24.435C22.185 24.3 22.0275 24.3 21.87 24.435C21.7125 24.57 21.69 24.7275 21.78 24.9075L29.4975 38.34C29.7225 38.7225 29.7 39.2175 29.43 39.5775C29.16 39.9375 28.71 40.095 28.2825 40.005L19.1925 37.98C18.9675 37.935 18.855 38.0475 18.7875 38.16C18.6975 38.3175 18.72 38.475 18.8775 38.5875L26.505 45.36C26.8425 45.6525 26.9775 46.1475 26.82 46.575C26.685 47.0025 26.28 47.295 25.83 47.34L9.855 48.42C9.855 48.42 9.5625 48.42 9.54 48.7575C9.5175 49.05 9.7425 49.1175 9.81 49.14L24.885 52.875C25.3125 52.9875 25.65 53.325 25.7175 53.775C25.785 54.225 25.605 54.6525 25.245 54.9L16.6725 60.705C16.5375 60.795 16.4925 60.93 16.56 61.0875C16.6275 61.245 16.74 61.3125 16.8975 61.29L26.955 60.165C27.3825 60.12 27.81 60.3225 28.035 60.705C28.26 61.0875 28.26 61.56 28.035 61.92L23.9625 68.085C23.8725 68.2425 23.94 68.3775 23.985 68.445C24.0975 68.6025 24.2325 68.5575 24.2775 68.5575L30.9825 66.8025C31.3425 66.7125 31.7475 66.8025 32.0175 67.05C32.2875 67.2975 32.445 67.68 32.3775 68.0625L31.14 76.2075L38.7675 70.695C39.2625 70.335 40.4325 69.5925 40.4325 69.5925C40.4325 69.5925 40.59 72.1575 40.095 72.5175L30.3075 79.5825C30.105 79.7175 29.88 79.785 29.655 79.785L29.565 79.6725Z" fill="#4382FC"/>
</g>
<defs>
<clipPath id="clip0_430_1591">
<rect width="126" height="126" fill="white"/>
</clipPath>
</defs>
</svg>
